<svg width="32" height="32" viewBox="0 0 32 32" fill="none" xmlns="http://www.w3.org/2000/svg">
<path d="M31.5 31H27.4845C30.4984 28.4601 28.7227 23.5 24.75 23.5H24.3955C24.6417 22.6294 24.4641 22.2811 23.7899 19.2483C23.1717 16.4669 21.0874 14.1528 18.229 13.3197C18.9096 12.8612 19.4416 12.1989 19.7382 11.4213C19.842 11.3549 19.8149 11.3731 20.4533 10.5095C22.6726 7.5075 21.1501 3.51912 18 2.35044V2C18 0.897187 17.1028 0 16 0C14.8972 0 14 0.897187 14 2V2.35044C10.8489 3.51944 9.32819 7.50856 11.5467 10.5095C12.1875 11.3763 12.1579 11.3549 12.2618 11.4213C12.5583 12.1984 13.0897 12.8604 13.7697 13.3189C12.7067 13.6287 11.7111 14.1583 10.8543 14.8818C10.6433 15.0599 10.6167 15.3753 10.7949 15.5863C10.973 15.7972 11.2884 15.8239 11.4994 15.6458C13.3437 14.0886 15.8954 13.5718 18.2528 14.3762C17.5287 17.0981 15.3176 19.1419 12.5118 19.6369L12.1336 19.7037L12.4881 18.1084C12.5479 17.8389 12.378 17.5718 12.1084 17.5119C11.8389 17.4519 11.5717 17.622 11.5119 17.8915C11.3957 18.4144 10.7487 21.3259 10.5989 21.9999H10C9.72388 21.9999 9.5 22.2238 9.5 22.4999C9.5 22.7761 9.72388 22.9999 10 22.9999H11.8787C13.3801 22.9999 14.7917 22.4153 15.8536 21.3535C15.9512 21.2559 16 21.1279 16 20.9999C16.0081 20.9999 15.9758 21.1829 16.1464 21.3535C17.9774 23.1844 19.8282 23 22 23C22.2761 23 22.5 22.7761 22.5 22.5C22.5 22.2239 22.2761 22 22 22H21.4011L20.7344 19H22.6915C22.7918 19.3379 22.7402 19.137 23.4581 22.3674C23.7012 23.4611 22.8675 24.5 21.7474 24.5H17.5807C18.1357 23.3347 17.2761 22 15.9999 22C15.7238 22 15.4999 22.2239 15.4999 22.5C15.4999 22.7761 15.7238 23 15.9999 23C16.2001 23 16.3883 23.0781 16.5301 23.2197C16.9986 23.6882 16.6704 24.5 16 24.5H10.2525C9.28619 24.5 8.5 23.7138 8.5 22.7475C8.5 22.4855 8.48425 22.6192 9.18612 19.4657C9.25644 19.1497 9.34925 18.8375 9.46144 18.5378C9.55819 18.2791 9.427 17.991 9.16838 17.8943C8.90981 17.7974 8.62169 17.9286 8.52487 18.1873C8.39656 18.5302 8.2905 18.8871 8.21006 19.2485C7.532 22.2951 7.35969 22.6367 7.60544 23.5H7.25C3.29656 23.5 1.49419 28.4508 4.51219 31H0.5C0.223875 31 0 31.2239 0 31.5C0 31.7761 0.223875 32 0.5 32H31.5C31.7761 32 32 31.7761 32 31.5C32 31.2239 31.7761 31 31.5 31ZM13 10C13 7.25375 12.986 7.32831 13.042 6.99644C13.5363 6.96163 13.9729 6.67219 14.1976 6.22288C14.2308 6.15613 14.2824 6.09975 14.3446 6.06119C14.4835 5.976 14.3143 6 17.4412 6C17.8664 6 17.7351 6.42719 18.3218 6.79125C18.5155 6.91006 18.7336 6.98019 18.9579 6.99638C19.0169 7.34588 19 7.30531 19 10C19 11.6542 17.6542 13 16 13C14.3458 13 13 11.6542 13 10ZM11.3944 31C10.9637 31 10.8452 30.4004 11.2479 30.2393C13.3504 29.3984 13.2149 29.4576 13.2773 29.416C14.3372 28.7104 14.5376 28.5 15.0916 28.5C15.7185 28.5 16.2728 28.8996 16.471 29.4942L16.5256 29.6581C16.6082 29.906 16.8674 30.0485 17.1213 29.9851L23.5 28.3904V31H11.3944ZM8.5 28.3904L11.3786 29.11L10.8766 29.3108C10.1949 29.5835 9.85625 30.32 10.0572 30.9999H8.5V28.3904Z" fill="#BDBDBD" fill-opacity="0.5"/>
</svg>
