<svg width="22" height="22" viewBox="0 0 22 22" fill="none" xmlns="http://www.w3.org/2000/svg">
<path fill-rule="evenodd" clip-rule="evenodd" d="M2.0625 11C2.0625 8.62963 3.00413 6.35634 4.68023 4.68023C6.35634 3.00413 8.62963 2.0625 11 2.0625C13.3704 2.0625 15.6437 3.00413 17.3198 4.68023C18.9959 6.35634 19.9375 8.62963 19.9375 11C19.9375 13.3704 18.9959 15.6437 17.3198 17.3198C15.6437 18.9959 13.3704 19.9375 11 19.9375C8.62963 19.9375 6.35634 18.9959 4.68023 17.3198C3.00413 15.6437 2.0625 13.3704 2.0625 11ZM11 0C8.08262 0 5.28473 1.15893 3.22183 3.22183C1.15893 5.28473 0 8.08262 0 11C0 13.9174 1.15893 16.7153 3.22183 18.7782C5.28473 20.8411 8.08262 22 11 22C13.9174 22 16.7153 20.8411 18.7782 18.7782C20.8411 16.7153 22 13.9174 22 11C22 8.08262 20.8411 5.28473 18.7782 3.22183C16.7153 1.15893 13.9174 0 11 0ZM11.6875 6.53125C11.6875 6.25775 11.5788 5.99544 11.3855 5.80205C11.1921 5.60865 10.9298 5.5 10.6562 5.5C10.3827 5.5 10.1204 5.60865 9.92705 5.80205C9.73365 5.99544 9.625 6.25775 9.625 6.53125V11.3438C9.62505 11.5497 9.68676 11.7509 9.80218 11.9215C9.91761 12.092 10.0815 12.2241 10.2726 12.3007L13.7101 13.6757C13.9619 13.7677 14.2396 13.758 14.4844 13.6487C14.7292 13.5394 14.9218 13.3391 15.0213 13.0902C15.1209 12.8413 15.1197 12.5634 15.0179 12.3155C14.9161 12.0675 14.7217 11.8689 14.476 11.7618L11.6875 10.6453V6.53125Z" fill="white" fill-opacity="0.85"/>
</svg>
