<svg width="25" height="25" viewBox="0 0 25 25" fill="none" xmlns="http://www.w3.org/2000/svg">
<path d="M11.7188 14.8438H13.2812V16.4062H11.7188V14.8438Z" fill="black"/>
<path d="M11.7188 17.9688H13.2812V19.5312H11.7188V17.9688Z" fill="black"/>
<path d="M16.4062 15.8828V21.875H8.59375V15.8828L11.1328 12.5L9.375 10.1562H15.625L13.8672 12.5L16.4062 15.8828Z" fill="white"/>
<path fill-rule="evenodd" clip-rule="evenodd" d="M17.9687 9.11719V3.125H20.3125V1.5625H4.6875V3.125H7.03125V9.11719C7.03125 9.45527 7.1409 9.78422 7.34375 10.0547L9.17969 12.5L7.34375 14.9453C7.1409 15.2158 7.03125 15.5447 7.03125 15.8828V21.875H4.6875V23.4375H20.3125V21.875H17.9687V15.8828C17.9687 15.5447 17.8591 15.2158 17.6562 14.9453L15.8203 12.5L17.6562 10.0547C17.8591 9.78422 17.9687 9.45527 17.9687 9.11719ZM16.4062 8.59375V3.125H8.59375V8.59375H16.4062ZM16.4062 21.875V15.8828L13.8672 12.5L15.625 10.1562H9.375L11.1328 12.5L8.59375 15.8828V21.875H16.4062Z" fill="white"/>
<path d="M16.4062 15.8828V21.875H8.59375V15.8828L11.1328 12.5L9.375 10.1562H15.625L13.8672 12.5L16.4062 15.8828Z" stroke="white" stroke-opacity="0.85" stroke-linejoin="round"/>
<path fill-rule="evenodd" clip-rule="evenodd" d="M17.9687 9.11719V3.125H20.3125V1.5625H4.6875V3.125H7.03125V9.11719C7.03125 9.45527 7.1409 9.78422 7.34375 10.0547L9.17969 12.5L7.34375 14.9453C7.1409 15.2158 7.03125 15.5447 7.03125 15.8828V21.875H4.6875V23.4375H20.3125V21.875H17.9687V15.8828C17.9687 15.5447 17.8591 15.2158 17.6562 14.9453L15.8203 12.5L17.6562 10.0547C17.8591 9.78422 17.9687 9.45527 17.9687 9.11719ZM16.4062 8.59375V3.125H8.59375V8.59375H16.4062ZM16.4062 21.875V15.8828L13.8672 12.5L15.625 10.1562H9.375L11.1328 12.5L8.59375 15.8828V21.875H16.4062Z" stroke="white" stroke-opacity="0.85" stroke-linejoin="round"/>
</svg>
