<svg width="25" height="27" viewBox="0 0 25 27" fill="none" xmlns="http://www.w3.org/2000/svg">
<path fill-rule="evenodd" clip-rule="evenodd" d="M0 3.36556C0 1.50777 1.50777 0 3.36556 0H8.17349C8.55604 5.70034e-09 8.92291 0.151965 9.19341 0.422464C9.46391 0.692963 9.61587 1.05984 9.61587 1.44238C9.61587 1.82492 9.46391 2.1918 9.19341 2.4623C8.92291 2.7328 8.55604 2.88476 8.17349 2.88476H3.36556C3.23804 2.88476 3.11575 2.93542 3.02558 3.02558C2.93542 3.11575 2.88476 3.23804 2.88476 3.36556V23.5589C2.88476 23.8243 3.10016 24.0397 3.36556 24.0397H8.17349C8.55604 24.0397 8.92291 24.1916 9.19341 24.4621C9.46391 24.7326 9.61587 25.0995 9.61587 25.4821C9.61587 25.8646 9.46391 26.2315 9.19341 26.502C8.92291 26.7725 8.55604 26.9244 8.17349 26.9244H3.36556C2.47295 26.9244 1.61691 26.5699 0.985749 25.9387C0.354584 25.3075 0 24.4515 0 23.5589V3.36556ZM20.0779 12.0198H9.13508C8.75254 12.0198 8.38566 12.1718 8.11516 12.4423C7.84466 12.7128 7.6927 13.0797 7.6927 13.4622C7.6927 13.8448 7.84466 14.2116 8.11516 14.4821C8.38566 14.7526 8.75254 14.9046 9.13508 14.9046H20.0779L16.2893 18.6933C16.1476 18.8253 16.0339 18.9845 15.9551 19.1615C15.8762 19.3384 15.8339 19.5294 15.8304 19.7231C15.827 19.9167 15.8626 20.1091 15.9352 20.2887C16.0077 20.4683 16.1157 20.6315 16.2527 20.7684C16.3896 20.9054 16.5528 21.0134 16.7324 21.0859C16.912 21.1585 17.1044 21.1941 17.298 21.1907C17.4917 21.1873 17.6827 21.1449 17.8596 21.066C18.0366 20.9872 18.1958 20.8735 18.3279 20.7318L24.5782 14.4815C24.8483 14.2111 25 13.8445 25 13.4622C25 13.08 24.8483 12.7134 24.5782 12.4429L18.3279 6.19262C18.1958 6.05091 18.0366 5.93725 17.8596 5.85841C17.6827 5.77958 17.4917 5.73719 17.298 5.73377C17.1044 5.73035 16.912 5.76598 16.7324 5.83852C16.5528 5.91107 16.3896 6.01904 16.2527 6.15601C16.1157 6.29297 16.0077 6.45612 15.9352 6.63573C15.8626 6.81533 15.827 7.0077 15.8304 7.20137C15.8339 7.39504 15.8762 7.58604 15.9551 7.76297C16.0339 7.9399 16.1476 8.09914 16.2893 8.23119L20.0779 12.0198Z" fill="#BDBDBD" fill-opacity="0.5"/>
</svg>
