<svg width="28" height="28" viewBox="0 0 28 28" fill="none" xmlns="http://www.w3.org/2000/svg">
<path fill-rule="evenodd" clip-rule="evenodd" d="M11.226 0.909054C12.0304 0.31847 13.0022 0 14 0C14.9978 0 15.9696 0.31847 16.774 0.909054L18.3981 2.09914C18.6658 2.2969 18.9756 2.42466 19.3046 2.47542L21.2963 2.78169C22.2821 2.93284 23.1939 3.39451 23.8993 4.09955C24.6046 4.80459 25.0667 5.71626 25.2183 6.70197L25.5246 8.69362C25.5753 9.02089 25.7031 9.33241 25.9009 9.60018L27.0909 11.2243C27.6815 12.0286 28 13.0004 28 13.9983C28 14.9961 27.6815 15.9679 27.0909 16.7722L25.9009 18.3963C25.7043 18.6638 25.5753 18.9748 25.5246 19.3029L25.2183 21.2945C25.0671 22.2806 24.6051 23.1926 23.8998 23.898C23.1944 24.6034 22.2823 25.0653 21.2963 25.2166L19.3046 25.5228C18.9766 25.5735 18.6656 25.7026 18.3981 25.8991L16.774 27.0892C15.9696 27.6798 14.9978 27.9982 14 27.9982C13.0022 27.9982 12.0304 27.6798 11.226 27.0892L9.60193 25.8991C9.33441 25.7026 9.02342 25.5735 8.69537 25.5228L6.70197 25.2183C5.71651 25.0668 4.80503 24.605 4.10001 23.9C3.395 23.195 2.93318 22.2835 2.78169 21.298L2.47542 19.3064C2.42474 18.9783 2.29566 18.6673 2.09914 18.3998L0.909054 16.7757C0.31847 15.9714 0 14.9996 0 14.0018C0 13.0039 0.31847 12.0321 0.909054 11.2278L2.09914 9.60368C2.29621 9.33647 2.42535 9.02534 2.47542 8.69712L2.78169 6.70197C2.93318 5.71651 3.395 4.80503 4.10001 4.10001C4.80503 3.395 5.71651 2.93318 6.70197 2.78169L8.69362 2.47542C9.02089 2.42466 9.33241 2.2969 9.60018 2.09914L11.226 0.909054ZM15.2198 3.02496C14.8661 2.76534 14.4388 2.62535 14 2.62535C13.5612 2.62535 13.1339 2.76534 12.7802 3.02496L11.156 4.21504C10.5468 4.66271 9.83823 4.95633 9.0909 5.07086L7.10275 5.37538C6.66832 5.44161 6.26641 5.64493 5.95567 5.95567C5.64493 6.26641 5.44161 6.66832 5.37538 7.10275L5.07086 9.09265C4.95633 9.83998 4.66271 10.5485 4.21504 11.1578L3.02496 12.7802C2.49117 13.5065 2.49117 14.4953 3.02496 15.2198L4.21504 16.844C4.66308 17.453 4.95535 18.1601 5.07086 18.9091L5.37538 20.8972C5.51189 21.7898 6.21194 22.4881 7.10275 22.6246L9.09265 22.9291C9.83995 23.0447 10.547 23.3369 11.1578 23.785L12.7802 24.975C13.5065 25.5088 14.4953 25.5088 15.2198 24.975L16.844 23.785C17.4532 23.3373 18.1618 23.0437 18.9091 22.9291L20.8972 22.6246C21.7898 22.4881 22.4881 21.7881 22.6246 20.8972L22.9291 18.9074C23.0447 18.1601 23.3369 17.453 23.785 16.8422L24.975 15.2198C25.5088 14.4935 25.5088 13.5047 24.975 12.7802L23.785 11.156C23.3373 10.5468 23.0437 9.83823 22.9291 9.0909L22.6246 7.10275C22.5584 6.66832 22.3551 6.26641 22.0443 5.95567C21.7336 5.64493 21.3317 5.44161 20.8972 5.37538L18.9074 5.07086C18.16 4.95633 17.4515 4.66271 16.8422 4.21504L15.2198 3.02496ZM15.7501 19.2504C15.7501 19.7145 15.5657 20.1597 15.2375 20.4879C14.9093 20.8161 14.4642 21.0005 14 21.0005C13.5358 21.0005 13.0907 20.8161 12.7625 20.4879C12.4343 20.1597 12.2499 19.7145 12.2499 19.2504C12.2499 18.7862 12.4343 18.3411 12.7625 18.0129C13.0907 17.6846 13.5358 17.5003 14 17.5003C14.4642 17.5003 14.9093 17.6846 15.2375 18.0129C15.5657 18.3411 15.7501 18.7862 15.7501 19.2504ZM12.1099 10.6485C12.2516 10.3685 12.4424 10.1252 12.7049 9.95196C12.9587 9.7822 13.3542 9.62468 14 9.62468C14.49 9.62468 14.9678 9.77695 15.2916 10.0185C15.4387 10.1211 15.5578 10.2589 15.6379 10.4194C15.718 10.58 15.7566 10.758 15.7501 10.9373C15.7501 11.2471 15.6801 11.3993 15.6154 11.4938C15.4832 11.6669 15.3185 11.8126 15.1306 11.9226C14.9976 12.0119 14.8541 12.0976 14.679 12.2044L14.6668 12.2114C14.504 12.3094 14.3098 12.4249 14.119 12.5526C13.6422 12.8536 13.2304 13.247 12.9079 13.7095C12.7194 13.9991 12.6527 14.3515 12.7223 14.69C12.792 15.0286 12.9923 15.326 13.2799 15.5177C13.5675 15.7094 13.9191 15.7799 14.2583 15.714C14.5976 15.6481 14.8972 15.451 15.0921 15.1656C15.2237 14.9926 15.3878 14.847 15.5751 14.7368C15.7245 14.6398 15.8762 14.5464 16.0301 14.4568L16.0406 14.4498C16.2034 14.35 16.3977 14.2345 16.5884 14.1085C16.977 13.8477 17.4407 13.4872 17.7995 12.9499C18.1741 12.3899 18.3753 11.7213 18.3753 10.9373C18.3753 9.60718 17.7453 8.57811 16.8667 7.91831C16.0334 7.31449 15.029 6.99258 14 6.99949C12.8957 6.99949 11.9804 7.27952 11.2488 7.76605C10.526 8.24909 10.0587 8.88263 9.76294 9.47592C9.61065 9.787 9.58747 10.1457 9.69847 10.4737C9.80947 10.8018 10.0456 11.0727 10.3555 11.2275C10.6654 11.3822 11.0239 11.4081 11.3528 11.2997C11.6818 11.1912 11.9528 10.9572 12.1099 10.6485Z" fill="white"/>
</svg>
