<svg width="28" height="29" viewBox="0 0 28 29" fill="none" xmlns="http://www.w3.org/2000/svg">
<path fill-rule="evenodd" clip-rule="evenodd" d="M2.87504 5.50169L0.747197 3.37385C0.686013 3.31251 0.607994 3.27072 0.52303 3.25377C0.438066 3.23683 0.349984 3.24549 0.269951 3.27867C0.189918 3.31184 0.121537 3.36804 0.0734778 3.44012C0.0254187 3.51221 -0.000154308 3.59694 7.0052e-07 3.68358V10.0636C7.0052e-07 10.3051 0.195987 10.5011 0.437469 10.5011H6.81751C6.90415 10.5012 6.98888 10.4757 7.06097 10.4276C7.13305 10.3795 7.18924 10.3112 7.22242 10.2311C7.2556 10.1511 7.26426 10.063 7.24731 9.97806C7.23037 9.89309 7.18858 9.81507 7.12724 9.75389L4.75091 7.37756C6.29996 5.2141 8.55848 3.66219 11.1335 2.99186C13.7085 2.32153 16.4371 2.5752 18.8444 3.70873C21.2517 4.84227 23.1855 6.78392 24.3091 9.19586C25.4328 11.6078 25.6753 14.3374 24.9945 16.9096C24.3136 19.4819 22.7525 21.734 20.5827 23.2742C18.4129 24.8144 15.7718 25.5451 13.119 25.3393C10.4661 25.1334 7.96934 24.004 6.06314 22.1475C4.15694 20.291 2.96194 17.825 2.68606 15.1785C2.65032 14.8321 2.47843 14.514 2.20818 14.2943C1.93794 14.0746 1.59148 13.9712 1.24504 14.007C0.898589 14.0427 0.580527 14.2146 0.360821 14.4848C0.141114 14.7551 0.0377601 15.1015 0.0734954 15.448C0.41015 18.6874 1.86563 21.7081 4.18938 23.9901C6.51313 26.2721 9.55975 27.6726 12.8048 27.9505C16.0498 28.2283 19.2901 27.3662 21.968 25.5125C24.6459 23.6588 26.5937 20.9295 27.4762 17.7944C28.3587 14.6594 28.1206 11.3148 26.803 8.33633C25.4853 5.3579 23.1705 2.93203 20.257 1.47634C17.3436 0.0206421 14.0137 -0.373797 10.8408 0.360924C7.66789 1.09564 4.85037 2.91355 2.87329 5.50169H2.87504ZM13.5615 7.00134C13.9096 7.00134 14.2434 7.13961 14.4895 7.38573C14.7357 7.63186 14.8739 7.96567 14.8739 8.31374V13.5494L18.4227 14.9703C18.7354 15.1066 18.9828 15.3593 19.1123 15.6749C19.2419 15.9905 19.2434 16.3442 19.1167 16.6609C18.99 16.9776 18.7449 17.2326 18.4334 17.3717C18.1219 17.5108 17.7684 17.5231 17.448 17.4061L13.0733 15.6562C12.83 15.5587 12.6215 15.3906 12.4746 15.1735C12.3277 14.9565 12.2492 14.7004 12.2491 14.4383V8.31374C12.2491 7.96567 12.3874 7.63186 12.6335 7.38573C12.8796 7.13961 13.2135 7.00134 13.5615 7.00134Z" fill="white"/>
</svg>
