<svg width="21" height="22" viewBox="0 0 21 22" fill="none" xmlns="http://www.w3.org/2000/svg">
<path fill-rule="evenodd" clip-rule="evenodd" d="M0 1.43478C0 1.05425 0.114973 0.689312 0.319626 0.420238C0.524278 0.151164 0.801847 0 1.09127 0H19.2791C19.4224 -3.97062e-09 19.5643 0.0371116 19.6967 0.109216C19.8291 0.181321 19.9494 0.287006 20.0507 0.420238C20.1521 0.55347 20.2325 0.711639 20.2873 0.885715C20.3421 1.05979 20.3704 1.24636 20.3704 1.43478C20.3704 1.6232 20.3421 1.80977 20.2873 1.98385C20.2325 2.15793 20.1521 2.3161 20.0507 2.44933C19.9494 2.58256 19.8291 2.68824 19.6967 2.76035C19.5643 2.83245 19.4224 2.86957 19.2791 2.86957H1.09127C0.801847 2.86957 0.524278 2.7184 0.319626 2.44933C0.114973 2.18025 0 1.81531 0 1.43478ZM0 11C0 10.6195 0.114973 10.2545 0.319626 9.98546C0.524278 9.71638 0.801847 9.56522 1.09127 9.56522H19.2791C19.5685 9.56522 19.8461 9.71638 20.0507 9.98546C20.2554 10.2545 20.3704 10.6195 20.3704 11C20.3704 11.3805 20.2554 11.7455 20.0507 12.0145C19.8461 12.2836 19.5685 12.4348 19.2791 12.4348H1.09127C0.801847 12.4348 0.524278 12.2836 0.319626 12.0145C0.114973 11.7455 0 11.3805 0 11ZM1.09127 19.1304C0.801847 19.1304 0.524278 19.2816 0.319626 19.5507C0.114973 19.8197 0 20.1847 0 20.5652C0 20.9457 0.114973 21.3107 0.319626 21.5798C0.524278 21.8488 0.801847 22 1.09127 22H19.2791C19.5685 22 19.8461 21.8488 20.0507 21.5798C20.2554 21.3107 20.3704 20.9457 20.3704 20.5652C20.3704 20.1847 20.2554 19.8197 20.0507 19.5507C19.8461 19.2816 19.5685 19.1304 19.2791 19.1304H1.09127Z" fill="#C6C6C6" fill-opacity="0.5"/>
</svg>
