<svg width="28" height="31" viewBox="0 0 28 31" fill="none" xmlns="http://www.w3.org/2000/svg">
<path fill-rule="evenodd" clip-rule="evenodd" d="M12.9205 2.8831C13.6388 2.82065 14.3612 2.82065 15.0795 2.8831C15.1476 2.88877 15.2837 2.95116 15.3385 3.15912L15.8849 5.24819C16.1628 6.3069 16.9247 7.07636 17.7698 7.49606C18.0988 7.65865 18.4145 7.84203 18.717 8.04432C19.5053 8.5699 20.5508 8.84403 21.6095 8.55477L23.6929 7.98193C23.9009 7.92522 24.0238 8.01218 24.0616 8.0689C24.4756 8.65497 24.8367 9.28075 25.1449 9.93866C25.1713 9.99727 25.1865 10.1466 25.0333 10.2979L23.4925 11.8217C22.7155 12.5892 22.43 13.6309 22.4905 14.5743C22.5138 14.9407 22.5138 15.3082 22.4905 15.6746C22.43 16.618 22.7155 17.6597 23.4925 18.4273L25.0333 19.9511C25.1846 20.1023 25.1713 20.2517 25.1449 20.3103C24.8395 20.9648 24.477 21.5911 24.0616 22.1819C24.0238 22.2367 23.899 22.3218 23.6929 22.267L21.6076 21.6941C20.5508 21.4049 19.5053 21.679 18.717 22.2046C18.4145 22.4069 18.0988 22.5903 17.7717 22.7529C16.9228 23.1726 16.1628 23.9401 15.8849 25.0007L15.3385 27.0898C15.2837 27.2978 15.1476 27.3601 15.0795 27.3658C14.3612 27.4281 13.6389 27.4281 12.9205 27.3658C12.8525 27.3601 12.7163 27.2959 12.6615 27.0898L12.1151 25.0007C11.8372 23.942 11.0753 23.1726 10.2303 22.7529C9.9031 22.5906 9.58673 22.4075 9.28309 22.2046C8.49473 21.679 7.44925 21.4049 6.39054 21.6941L4.30715 22.267C4.09918 22.3237 3.9763 22.2367 3.93849 22.18C3.52312 21.5898 3.16062 20.9641 2.8552 20.3103C2.82873 20.2517 2.81361 20.1023 2.96674 19.9511L4.50754 18.4273C5.28456 17.6597 5.57004 16.618 5.50954 15.6746C5.48625 15.3082 5.48625 14.9407 5.50954 14.5743C5.57004 13.6309 5.28456 12.5892 4.50754 11.8217L2.96674 10.2979C2.8155 10.1466 2.82873 9.99727 2.8552 9.93866C3.16006 9.28388 3.52259 8.65753 3.93849 8.06701C3.9763 8.01218 4.10108 7.92522 4.30715 7.98193L6.39243 8.55477C7.44925 8.84403 8.49473 8.5699 9.28309 8.04432C9.58558 7.84203 9.90131 7.65865 10.2284 7.49606C11.0772 7.07636 11.8372 6.30879 12.1151 5.24819L12.6615 3.15912C12.7163 2.95116 12.8525 2.88877 12.9205 2.8831ZM14 0C13.5539 0 13.1115 0.0189056 12.6748 0.0567167C11.2701 0.179603 10.2359 1.21941 9.91832 2.44071L9.37006 4.53167C9.33792 4.65644 9.2226 4.83037 8.97115 4.95515C8.53495 5.17103 8.11312 5.41479 7.70826 5.68491C7.47572 5.83993 7.26776 5.85506 7.14109 5.81914L5.0577 5.24819C3.84018 4.91356 2.42604 5.286 1.61688 6.43924C1.10638 7.16551 0.660998 7.93543 0.28593 8.74005C-0.309595 10.0162 0.0760784 11.4284 0.972203 12.3151L2.51301 13.8389C2.60754 13.9296 2.69828 14.1168 2.67938 14.3947C2.64848 14.8807 2.64848 15.3682 2.67938 15.8542C2.69828 16.1321 2.60754 16.3193 2.51301 16.41L0.972203 17.9338C0.0760784 18.8205 -0.309595 20.2327 0.28593 21.5089C0.664042 22.318 1.11021 23.0875 1.61688 23.8116C2.42604 24.9629 3.84018 25.3354 5.0577 25.0026L7.14298 24.4298C7.26776 24.3939 7.47572 24.409 7.70826 24.564C8.11095 24.8344 8.53254 25.0782 8.97115 25.2938C9.2226 25.4185 9.33792 25.5925 9.37195 25.7173L9.91832 27.8082C10.2378 29.0295 11.2701 30.0693 12.6748 30.1903C13.5566 30.267 14.4435 30.267 15.3253 30.1903C16.73 30.0693 17.7641 29.0295 18.0817 27.8082L18.63 25.7173C18.6621 25.5925 18.7775 25.4185 19.0289 25.2938C19.4651 25.078 19.887 24.8342 20.2918 24.564C20.5243 24.409 20.7323 24.3939 20.859 24.4298L22.9424 25.0007C24.1599 25.3354 25.574 24.9629 26.3832 23.8097C26.8899 23.0875 27.3379 22.318 27.7141 21.5089C28.3097 20.2327 27.924 18.8205 27.026 17.9338L25.4871 16.41C25.3925 16.3193 25.3018 16.1321 25.3207 15.8542C25.3515 15.3682 25.3515 14.8807 25.3207 14.3947C25.3018 14.1168 25.3944 13.9296 25.4871 13.8389L27.026 12.3151C27.924 11.4284 28.3097 10.0162 27.7141 8.74005C27.339 7.93485 26.8937 7.1643 26.3832 6.43735C25.574 5.286 24.1599 4.91356 22.9424 5.2463L20.8571 5.81914C20.7323 5.85506 20.5243 5.83993 20.2918 5.68491C19.887 5.41477 19.4651 5.17102 19.0289 4.95515C18.7775 4.83037 18.6621 4.65644 18.6281 4.53167L18.0836 2.43882C17.7622 1.21941 16.73 0.179603 15.3253 0.0586073C14.8846 0.0199232 14.4424 0.000369031 14 0ZM16.8359 15.1245C16.8359 15.8766 16.5371 16.5979 16.0053 17.1297C15.4734 17.6615 14.7521 17.9603 14 17.9603C13.2479 17.9603 12.5266 17.6615 11.9948 17.1297C11.463 16.5979 11.1642 15.8766 11.1642 15.1245C11.1642 14.3723 11.463 13.651 11.9948 13.1192C12.5266 12.5874 13.2479 12.2886 14 12.2886C14.7521 12.2886 15.4734 12.5874 16.0053 13.1192C16.5371 13.651 16.8359 14.3723 16.8359 15.1245ZM19.6717 15.1245C19.6717 16.6287 19.0742 18.0713 18.0105 19.1349C16.9469 20.1986 15.5043 20.7961 14 20.7961C12.4958 20.7961 11.0532 20.1986 9.98956 19.1349C8.92591 18.0713 8.32836 16.6287 8.32836 15.1245C8.32836 13.6202 8.92591 12.1776 9.98956 11.114C11.0532 10.0503 12.4958 9.45279 14 9.45279C15.5043 9.45279 16.9469 10.0503 18.0105 11.114C19.0742 12.1776 19.6717 13.6202 19.6717 15.1245Z" fill="white"/>
</svg>
