<svg width="28" height="25" viewBox="0 0 28 25" fill="none" xmlns="http://www.w3.org/2000/svg">
<path d="M10.8596 24.9324C10.0331 24.9324 9.24035 24.6041 8.65588 24.0196C8.07141 23.4352 7.74306 22.6425 7.74306 21.8159C7.74306 20.9893 8.07141 20.1966 8.65588 19.6122C9.24035 19.0277 10.0331 18.6993 10.8596 18.6993C11.6862 18.6993 12.4789 19.0277 13.0634 19.6122C13.6478 20.1966 13.9762 20.9893 13.9762 21.8159C13.9762 22.6425 13.6478 23.4352 13.0634 24.0196C12.4789 24.6041 11.6862 24.9324 10.8596 24.9324ZM21.7676 24.9324C20.941 24.9324 20.1483 24.6041 19.5638 24.0196C18.9794 23.4352 18.651 22.6425 18.651 21.8159C18.651 20.9893 18.9794 20.1966 19.5638 19.6122C20.1483 19.0277 20.941 18.6993 21.7676 18.6993C22.5941 18.6993 23.3868 19.0277 23.9713 19.6122C24.5558 20.1966 24.8841 20.9893 24.8841 21.8159C24.8841 22.6425 24.5558 23.4352 23.9713 24.0196C23.3868 24.6041 22.5941 24.9324 21.7676 24.9324ZM1.45074 2.99657C1.06173 2.98402 0.692855 2.82067 0.422115 2.54106C0.151376 2.26144 0 1.88749 0 1.49828C0 1.10908 0.151376 0.735125 0.422115 0.455512C0.692855 0.175899 1.06173 0.012547 1.45074 0L3.24432 0C4.64988 0 5.86534 0.975482 6.17076 2.34677L8.12328 11.1386C8.42871 12.5099 9.64416 13.4853 11.0497 13.4853H22.7555L25.0026 4.49407H10.4404C10.0551 4.47649 9.69136 4.31104 9.42489 4.03212C9.15841 3.75321 9.00971 3.38231 9.00971 2.99657C9.00971 2.61082 9.15841 2.23992 9.42489 1.96101C9.69136 1.6821 10.0551 1.51665 10.4404 1.49906H25.0026C25.4581 1.49893 25.9077 1.60266 26.3171 1.80236C26.7265 2.00206 27.085 2.29248 27.3654 2.65154C27.6457 3.0106 27.8405 3.42885 27.9349 3.8745C28.0293 4.32014 28.0209 4.78145 27.9103 5.22335L25.6633 14.2115C25.5013 14.86 25.1271 15.4358 24.6002 15.8472C24.0733 16.2586 23.424 16.482 22.7555 16.4819H11.0497C9.68592 16.4821 8.36283 16.0171 7.29897 15.1638C6.23512 14.3104 5.49414 13.1197 5.1984 11.7884L3.24432 2.99657H1.45074Z" fill="white"/>
</svg>
