<?xml version="1.0" standalone="no"?><!DOCTYPE svg PUBLIC "-//W3C//DTD SVG 1.1//EN" "http://www.w3.org/Graphics/SVG/1.1/DTD/svg11.dtd"><svg t="1686472005499" class="icon" viewBox="0 0 1024 1024" version="1.1" xmlns="http://www.w3.org/2000/svg" p-id="3200" xmlns:xlink="http://www.w3.org/1999/xlink" width="200" height="200"><path d="M951.5 331m-16 0a16 16 0 1 0 32 0 16 16 0 1 0-32 0Z" fill="#FFB90F" p-id="3201"></path><path d="M71 330m-16 0a16 16 0 1 0 32 0 16 16 0 1 0-32 0Z" fill="#FFB90F" p-id="3202"></path><path d="M48 640c0-80 16-288 16-288h896s16 208 16 288-48 320-464 320S48 720 48 640z" fill="#CD1E28" p-id="3203"></path><path d="M933 344h-65.09C873.127 378.639 899 554.065 899 626c0 80-48 320-464 320a999.32 999.32 0 0 1-52.121-1.335C418.522 949.4 457.767 952 501 952c416 0 464-240 464-320s-32-288-32-288z" fill="#AA141E" p-id="3204"></path><path d="M106 491c0 0.225-0.006 0.448-0.009 0.672 0.388 0.288 0.784 0.574 1.176 0.861A93.36 93.36 0 0 1 124 491c34.817 0 65.159 19.135 81.099 47.46C217.443 532.405 231.323 529 246 529c34.02 0 63.768 18.27 79.982 45.53C341.729 562.291 361.512 555 383 555c27.181 0 51.636 11.663 68.64 30.254C467.885 571.381 488.963 563 512 563c25.366 0 48.355 10.16 65.133 26.626C594.177 570.239 619.157 558 647 558c19.845 0 38.234 6.223 53.335 16.814l0.413-0.079C717.294 549.028 746.156 532 779 532c14.677 0 28.557 3.405 40.901 9.46C835.841 513.135 866.184 494 901 494c2.088 0 4.158 0.076 6.211 0.211A94.607 94.607 0 0 1 907 488c0-42.856 28.991-78.936 68.429-89.713L960 352v-96H64v96l-16 48c0 1.632 0.052 3.259 0.154 4.881C82.087 418.748 106 452.078 106 491z" fill="#E6CB96" p-id="3205"></path><path d="M64 256a448 192 0 1 0 896 0 448 192 0 1 0-896 0Z" fill="#FFE1A6" p-id="3206"></path><path d="M512 480c-247.424 0-448-85.961-448-192v48c0 106.039 200.576 192 448 192s448-85.961 448-192v-48c0 106.039-200.576 192-448 192z" fill="#CD1E28" p-id="3207"></path><path d="M512 507m-16 0a16 16 0 1 0 32 0 16 16 0 1 0-32 0Z" fill="#FFB90F" p-id="3208"></path><path d="M438.5 504m-16 0a16 16 0 1 0 32 0 16 16 0 1 0-32 0Z" fill="#FFB90F" p-id="3209"></path><path d="M365 497m-16 0a16 16 0 1 0 32 0 16 16 0 1 0-32 0Z" fill="#FFB90F" p-id="3210"></path><path d="M292 481m-16 0a16 16 0 1 0 32 0 16 16 0 1 0-32 0Z" fill="#FFB90F" p-id="3211"></path><path d="M230 463m-16 0a16 16 0 1 0 32 0 16 16 0 1 0-32 0Z" fill="#FFB90F" p-id="3212"></path><path d="M168 435m-16 0a16 16 0 1 0 32 0 16 16 0 1 0-32 0Z" fill="#FFB90F" p-id="3213"></path><path d="M124 408m-12 0a12 12 0 1 0 24 0 12 12 0 1 0-24 0Z" fill="#FFB90F" p-id="3214"></path><path d="M90 376m-12 0a12 12 0 1 0 24 0 12 12 0 1 0-24 0Z" fill="#FFB90F" p-id="3215"></path><path d="M584 504m-16 0a16 16 0 1 0 32 0 16 16 0 1 0-32 0Z" fill="#FFB90F" p-id="3216"></path><path d="M657.5 497m-16 0a16 16 0 1 0 32 0 16 16 0 1 0-32 0Z" fill="#FFB90F" p-id="3217"></path><path d="M730.5 481m-16 0a16 16 0 1 0 32 0 16 16 0 1 0-32 0Z" fill="#FFB90F" p-id="3218"></path><path d="M792.5 463m-16 0a16 16 0 1 0 32 0 16 16 0 1 0-32 0Z" fill="#FFB90F" p-id="3219"></path><path d="M854.5 435m-16 0a16 16 0 1 0 32 0 16 16 0 1 0-32 0Z" fill="#FFB90F" p-id="3220"></path><path d="M898.5 408m-12 0a12 12 0 1 0 24 0 12 12 0 1 0-24 0Z" fill="#FFB90F" p-id="3221"></path><path d="M932.5 377m-12 0a12 12 0 1 0 24 0 12 12 0 1 0-24 0Z" fill="#FFB90F" p-id="3222"></path></svg>